<?xml version="1.0" encoding="UTF-8" standalone="no"?>
<svg
   id="Layer_1"
   data-name="Layer 1"
   viewBox="0 0 200 200"
   version="1.1"
   sodipodi:docname="cb.svg"
   inkscape:version="1.4.2 (f4327f4, 2025-05-13)"
   xmlns:inkscape="http://www.inkscape.org/namespaces/inkscape"
   xmlns:sodipodi="http://sodipodi.sourceforge.net/DTD/sodipodi-0.dtd"
   xmlns="http://www.w3.org/2000/svg"
   xmlns:svg="http://www.w3.org/2000/svg">
  <sodipodi:namedview
     id="namedview22"
     pagecolor="#505050"
     bordercolor="#eeeeee"
     borderopacity="1"
     inkscape:pageshadow="0"
     inkscape:pageopacity="0"
     inkscape:pagecheckerboard="0"
     showgrid="false"
     inkscape:zoom="4.365"
     inkscape:cx="121.42039"
     inkscape:cy="72.966781"
     inkscape:window-width="3840"
     inkscape:window-height="2054"
     inkscape:window-x="-11"
     inkscape:window-y="-11"
     inkscape:window-maximized="1"
     inkscape:current-layer="Layer_1"
     inkscape:snap-object-midpoints="true"
     inkscape:showpageshadow="0"
     inkscape:deskcolor="#d1d1d1" />
  <defs
     id="defs7">
    <style
       id="style2">.cls-1{fill:none;}.cls-2{clip-path:url(#clip-path);}.cls-3{fill:#1c4d97;}.cls-4{fill:#d0d0d0;}.cls-5{fill:#e6e6e6;}.cls-6{fill:#fdfdfd;}</style>
    <clipPath
       id="clip-path">
      <rect
         class="cls-1"
         y="-220"
         width="200"
         height="200"
         id="rect4" />
    </clipPath>
    <linearGradient
       id="linear-gradient"
       x1="388.84"
       y1="84.660004"
       x2="419.72"
       y2="104.71"
       gradientUnits="userSpaceOnUse">
      <stop
         offset="0"
         stop-color="#fff"
         id="stop4" />
      <stop
         offset="1"
         id="stop6" />
    </linearGradient>
    <linearGradient
       id="linear-gradient-3"
       x1="223.61"
       y1="479.60001"
       x2="233.61"
       y2="472.34"
       gradientUnits="userSpaceOnUse"
       gradientTransform="translate(-90.781064,-145.15978)">
      <stop
         offset="0"
         stop-color="#393939"
         id="stop14" />
      <stop
         offset="1"
         id="stop16" />
    </linearGradient>
    <linearGradient
       id="linear-gradient-2"
       x1="86.139999"
       y1="432.5"
       x2="82.739998"
       y2="423.17001"
       gradientUnits="userSpaceOnUse"
       gradientTransform="translate(-90.781064,-145.15978)">
      <stop
         offset="0"
         stop-color="#3b3b3b"
         id="stop9" />
      <stop
         offset="1"
         id="stop11" />
    </linearGradient>
  </defs>
  <title
     id="title9">Projects</title>
  <rect
     class="cls-4"
     width="200"
     height="200"
     id="rect15"
     style="fill:#000000" />
  <g
     id="g1237"
     transform="matrix(0.39155629,0,0,0.39155629,41.614605,59.192486)">
    <circle
       class="cls-1"
       cx="155.51489"
       cy="103.02862"
       r="212"
       id="circle25"
       style="fill:#ffffff;fill-opacity:1" />
    <path
       d="m 372.21894,-107.15978 c 0,0 -15,25.999992 -43,58.999992 0,0 -8.87,41.4000002 -69.67,53.7400001 a 12.73,12.73 0 0 0 -2.55,0.78 c -6.78,2.8500003 -40.24,16.6899999 -52.78,18.4799999 -14,2 -15,31.000005 7,52.000005 0,0 11,23.999993 -36,27.999993 0,0 -23,18 5,22 0,0 23,29 -10,24 -31.23,-4.73 10.08,37.1 6.13,49.24 a 16,16 0 0 0 -0.78,4.76 c -0.05,3.93 -1.68,11.63 -11.06,22.42 a 20.07,20.07 0 0 0 -5,12.49001 c -0.5,13.8 2,41.41 28.7,48.08999 l 67,29 h 117.01 z"
       id="path27" />
    <path
       class="cls-2"
       d="m 461,38 c -2.85,5.39 -6.06,10.58 -9.3,15.76 C 448.46,58.94 445,64 441.51,69 c -3.49,5 -7.12,9.91 -10.89,14.72 -1.85,2.43 -3.78,4.8 -5.67,7.19 -1.89,2.39 -3.89,4.71 -5.83,7.07 l 0.31,-0.64 a 40.38,40.38 0 0 1 -1.93,5.81 53.78,53.78 0 0 1 -2.56,5.43 68.35,68.35 0 0 1 -6.56,10 77.32,77.32 0 0 1 -17.45,16.14 96.36,96.36 0 0 1 -10.24,6 c -1.79,0.85 -3.55,1.75 -5.38,2.47 l -2.73,1.14 -2.77,1 c -3.69,1.37 -7.49,2.41 -11.28,3.4 -1.91,0.46 -3.83,0.86 -5.74,1.29 L 347,151 l 5.67,-1.47 c 1.88,-0.56 3.76,-1.08 5.62,-1.65 1.86,-0.57 3.7,-1.21 5.52,-1.91 1.82,-0.7 3.64,-1.35 5.42,-2.14 a 101,101 0 0 0 20.26,-11.2 85.75,85.75 0 0 0 8.89,-7.34 80.78,80.78 0 0 0 7.7,-8.53 65,65 0 0 0 6.22,-9.62 c 0.89,-1.68 1.74,-3.4 2.46,-5.15 a 38.17,38.17 0 0 0 1.81,-5.3 l 0.09,-0.37 0.22,-0.27 c 3.91,-4.64 7.83,-9.29 11.64,-14 3.81,-4.71 7.55,-9.52 11.25,-14.34 3.7,-4.82 7.3,-9.71 10.86,-14.71 3.56,-5 7.02,-9.91 10.37,-15 z"
       id="path29"
       style="fill:url(#linear-gradient)"
       clip-path="url(#clip-path)"
       transform="translate(-90.781064,-145.15978)" />
    <path
       d="m 136.21894,337.84021 18,-113 c 0,0 29,-67 25,-86 0,0 18,-65.999993 -2,-75.999993 -20,-10 -27,10 -27,10 0,0 -24,83.999993 -29,96.999993 -5.89,15.31 -21.00001,64 -24.000006,70 -0.92,1.84 -4.389997,13.86 -15.859997,2.48 a 15,15 0 0 0 -10.29,-4.37 c -8.79,-0.18 -24.67,2.37 -41.85,18.89 -25.9999999,25 -93.000001,81 -93.000001,81 z"
       id="path31" />
    <path
       class="cls-3"
       d="m 5.7189371,282.34021 c -2.12,0 -4.1200004,-0.08 -6.1100004,-0.08 -1.99,0 -4.0000002,0 -5.9000002,0.11001 -1.9,0.11 -3.9100005,0.20999 -5.8900005,0.42 -1.98,0.21 -4,0.45 -6.099999,0.55 a 18.55,18.55 0 0 1 5.619999,-2.86 23.57,23.57 0 0 1 6.2400005,-1.11 23.82,23.82 0 0 1 6.3000002,0.55 16.38,16.38 0 0 1 5.8400004,2.41999 z"
       id="path35"
       style="fill:url(#linear-gradient-2)" />
    <path
       class="cls-4"
       d="m 145.71894,334.34021 a 25.5,25.5 0 0 0 -3.62,-3.37 13.39,13.39 0 0 0 -3.9,-2.08 17,17 0 0 0 -4.42,-0.75 c -0.79,-0.07 -1.59,0 -2.43,0 -0.84,0 -1.68,0.11001 -2.6,0.06 a 15.56,15.56 0 0 1 2.24,-1.49 c 0.4,-0.17 0.82,-0.33999 1.25,-0.5 a 6.56,6.56 0 0 1 1.31,-0.38 10.59,10.59 0 0 1 5.6,0.25 9.75,9.75 0 0 1 4.62,3.26 8.87,8.87 0 0 1 1.95,5 z"
       id="path39"
       style="fill:url(#linear-gradient-3)" />
  </g>
</svg>
