<svg id="Layer_1" data-name="Layer 1" xmlns="http://www.w3.org/2000/svg" viewBox="0 0 200 200"><defs><style>.cls-1{fill:#e6e6e6;}.cls-2{fill:#1f80a1;}.cls-3{fill:#fccd12;}.cls-4{fill:#a8cad5;}</style></defs><title>wipeout</title><rect class="cls-1" width="200" height="200"/><path class="cls-2" d="M154,39.3A21.27,21.27,0,0,1,168,34h32V0H0V133H23.3a23.74,23.74,0,0,0,15.34-5.62Z"/><path class="cls-3" d="M32,200l65.11-45.48a16.21,16.21,0,0,1,11-4.52H200v50Z"/><path class="cls-4" d="M200,74H156.41A18,18,0,0,0,145,78.06L6.85,178.38C4.91,180,2.51,179.89,0,180v15l123.73-83.66a15.7,15.7,0,0,1,9.69-3.34H200Z"/></svg>